<?xml version="1.0" encoding="UTF-8" standalone="no"?>
<!-- Created with Inkscape (http://www.inkscape.org/) -->

<svg
   version="1.1"
   id="svg434"
   width="2304"
   height="1732"
   viewBox="0 0 2304 1732"
   sodipodi:docname="NetworkLogoOnly-svg.svg"
   inkscape:version="1.2.2 (b0a8486541, 2022-12-01)"
   xmlns:inkscape="http://www.inkscape.org/namespaces/inkscape"
   xmlns:sodipodi="http://sodipodi.sourceforge.net/DTD/sodipodi-0.dtd"
   xmlns="http://www.w3.org/2000/svg"
   xmlns:svg="http://www.w3.org/2000/svg">
  <sodipodi:namedview
     id="namedview1286"
     pagecolor="#ffffff"
     bordercolor="#000000"
     borderopacity="0.25"
     inkscape:showpageshadow="2"
     inkscape:pageopacity="0.0"
     inkscape:pagecheckerboard="0"
     inkscape:deskcolor="#d1d1d1"
     showgrid="false"
     inkscape:zoom="0.41473104"
     inkscape:cx="1294.8151"
     inkscape:cy="606.41711"
     inkscape:window-width="960"
     inkscape:window-height="1011"
     inkscape:window-x="0"
     inkscape:window-y="32"
     inkscape:window-maximized="0"
     inkscape:current-layer="svg434" />
  <defs
     id="defs438">
    <clipPath
       clipPathUnits="userSpaceOnUse"
       id="clipPath721">
      <path
         id="path723"
         style="fill:#ff0000;fill-opacity:1;fill-rule:nonzero;stroke:none"
         d="M 52.378906,99.226562 V 1614.3887 H 2144.9473 V 99.226562 Z M 1385.5918,1440.3301 c 0.1498,0.015 0.2407,0 0.3672,0.1074 0.2189,0.1811 0.3222,0.5174 0.3652,0.7852 0.021,0.1276 0.022,0.2581 0.033,0.3867 0,0.1507 0.01,0.3005 0,0.4511 -0.013,0.3551 -0.049,0.7236 -0.09,1.0762 -0.041,0.3553 -0.085,0.6736 -0.1465,1.0254 -0.026,0.1496 -0.056,0.2981 -0.084,0.4473 -0.043,0.2014 -0.089,0.4034 -0.1465,0.6015 0.015,0.088 0.03,0.1759 0.047,0.2637 0.053,0.2173 0.1184,0.4338 0.2344,0.627 0.1725,0.2836 0.369,0.5499 0.5664,0.8164 0.1423,0.186 0.2842,0.3737 0.4375,0.5508 0.1605,0.1853 -0.023,0.3529 -0.1836,0.1679 -0.1586,-0.1823 -0.3044,-0.3764 -0.4512,-0.5683 -0.2031,-0.2733 -0.4046,-0.5471 -0.582,-0.8379 -0.1096,-0.1818 -0.1663,-0.3861 -0.2207,-0.5899 -0.057,0.1301 -0.1302,0.2652 -0.2188,0.375 -0.038,0.048 -0.086,0.088 -0.1289,0.1309 -0.1147,0.071 -0.1394,0.1022 -0.2754,0.1152 -0.042,0 -0.084,-0.01 -0.1269,-0.01 -0.2446,-0.018 -0.2089,-0.3041 0.029,-0.2461 0.092,0.023 0.1142,0.016 0.1992,-0.037 0.033,-0.031 0.069,-0.059 0.098,-0.094 0.085,-0.1025 0.153,-0.2304 0.205,-0.3516 0.046,-0.1076 0.083,-0.2182 0.1172,-0.33 -0.019,-0.1081 -0.039,-0.216 -0.057,-0.3243 -0.037,-0.2093 -0.072,-0.4191 -0.1172,-0.6269 -0.057,-0.2338 -0.1197,-0.4666 -0.1817,-0.6992 -0.1131,-0.3913 -0.2165,-0.7853 -0.3105,-1.1817 -0.053,-0.2255 -0.092,-0.4553 -0.1309,-0.6836 -0.024,-0.1358 0.043,-0.2084 0.1133,-0.2031 0.05,0 0.097,0.06 0.1192,0.1484 -0.01,-0.1919 -0.016,-0.3834 -0.016,-0.5761 0.015,-0.2153 0.056,-0.4376 0.2266,-0.5879 0.04,-0.035 0.085,-0.067 0.1348,-0.088 0.055,-0.023 0.1158,-0.027 0.1738,-0.041 z m 0.045,0.2441 c -0.03,0 -0.061,-2e-4 -0.09,0.01 -0.03,0.01 -0.057,0.025 -0.082,0.043 -0.1334,0.097 -0.1451,0.2737 -0.1601,0.4238 0,0.3987 0.029,0.7963 0.062,1.1933 0.035,0.365 0.073,0.7309 0.1387,1.0918 v 0 c 0.01,0.034 0.01,0.063 0,0.088 0.01,0.019 0.01,0.038 0.016,0.057 0.063,0.2362 0.1256,0.4733 0.1836,0.711 0.03,0.1397 0.053,0.281 0.078,0.4218 0,-0.016 0.01,-0.033 0.012,-0.049 0.028,-0.1468 0.057,-0.2922 0.082,-0.4395 0.06,-0.3482 0.1035,-0.6599 0.1445,-1.0117 0.041,-0.3473 0.077,-0.7029 0.09,-1.0527 v -0.4297 c -0.022,-0.2849 -0.01,-0.3634 -0.092,-0.625 -0.028,-0.091 -0.1,-0.2697 -0.1757,-0.3477 -0.066,-0.068 -0.1221,-0.065 -0.2071,-0.082 z" />
    </clipPath>
  </defs>
  <path
     id="path450"
     clip-path="url(#clipPath721)"
     style="display:inline;fill:#26bbde;stroke-width:1.00038"
     transform="translate(66.092285,3.9246774)"
     d="m 618.85303,99.225713 -2.00781,1.074217 -2.00782,1.07422 0.56446,2.82422 c 0.31036,1.55281 2.27178,5.44932 4.35742,8.6582 2.08489,3.2098 4.35495,6.96069 5.04297,8.33594 0.68822,1.37523 3.25975,5.65248 5.71484,9.50195 2.45479,3.85064 6.06153,9.92666 8.01367,13.50196 3.89404,7.12965 4.11091,7.49053 10.28125,17.21875 2.34417,3.69432 4.26172,7.08258 4.26172,7.52539 0,0.44284 1.625,3.2685 3.61328,6.28125 1.98772,3.01199 5.67162,9.08077 8.18555,13.48047 2.51318,4.40045 5.95053,10.02649 7.63476,12.50195 1.68489,2.47516 3.89446,6.07487 4.91211,8 1.01737,1.92514 2.8328,5.0765 4.03516,7.00195 1.20274,1.92509 2.71471,4.40004 3.36133,5.5 0.64633,1.10018 3.15786,5.377 5.58203,9.50196 2.42392,4.12517 6.43562,10.8763 8.91406,15.00195 2.47792,4.12437 9.81772,16.50155 16.3086,27.50195 6.49102,11.00052 14.16954,23.82834 17.0625,28.50391 5.69515,9.2027 21.08853,35.47654 23.33398,39.82617 0.76048,1.4739 3.08416,5.20576 5.16406,8.29102 2.0801,3.08597 4.96519,7.81232 6.40821,10.50195 1.4435,2.68889 3.62077,6.55123 4.83984,8.58203 1.21847,2.03088 3.74721,6.30825 5.61914,9.50195 1.87186,3.19491 5.75088,9.63297 8.62109,14.3086 6.27017,10.21317 21.00107,34.95661 29.47461,49.50781 5.87464,10.08747 8.37408,14.17433 9.48438,15.50195 0.69077,0.82495 2.54797,3.97482 4.12695,7 1.5782,3.02537 4.70802,8.42731 6.95508,12.00196 7.27328,11.57252 24.48437,40.56507 24.48437,41.24414 0,0.36232 1.46351,2.78856 3.25196,5.38867 1.78788,2.59919 4.82803,7.53395 6.7539,10.96484 8.02354,14.29295 11.6207,20.33759 16.67774,28.02539 2.93396,4.46199 5.33594,8.42115 5.33594,8.79883 0,0.37769 1.57559,3.14948 3.50195,6.1582 1.92515,3.00956 3.50195,5.71093 3.50195,6.00196 0,0.29113 1.75071,3.16452 3.89063,6.38476 2.13877,3.22011 8.78323,14.23429 14.75976,24.47461 17.73611,30.38896 19.78973,33.85 23.15821,39.02735 1.77034,2.72032 3.21875,5.32637 3.21875,5.79101 0,0.46468 0.8348,2.06407 1.85546,3.55469 2.95179,4.30672 9.72581,15.38842 11.7461,19.21289 1.01643,1.92516 3.42773,5.97462 5.35742,9 1.93029,3.02538 4.24106,6.85182 5.13477,8.50195 2.81273,5.19509 19.07178,32.88799 20.84375,35.50391 0.93165,1.37517 6.36316,10.37647 12.06639,20.00195 5.7041,9.62526 11.8973,19.97856 13.7656,23.00391 5.4625,8.87365 25.0425,41.69468 31.0196,52.00586 3.0301,5.22476 7.8593,13.3292 10.7363,18.0039 8.4671,13.75214 18.5508,30.96906 18.5508,31.65821 0,0.35094 1.6468,3.12178 3.664,6.1582 2.0162,3.03641 5.0025,8.03407 6.6329,11.10547 1.6323,3.07036 3.7473,6.70873 4.7031,8.08398 1.8459,2.6563 14.4908,23.28313 17.0176,27.75782 0.8249,1.46207 5.953,10.10553 11.3925,19.20507 13.1472,21.98777 20.627,34.83397 20.627,35.42383 0,0.26537 1.7395,3.10377 3.8633,6.30469 2.1244,3.20192 6.2873,9.99512 9.2519,15.09372 2.9681,5.0996 6.4006,10.9494 7.6289,13.002 1.2253,2.0495 2.7376,4.6962 3.3633,5.8769 0.6232,1.1814 2.0959,2.6136 3.2715,3.1836 l 2.1387,1.0332 122.8886,0.068 122.8868,0.068 1.9355,-1.0352 1.9355,-1.0371 v -1.8672 c 0,-1.8655 -5.2069,-11.7342 -9.0058,-17.0625 -1.0961,-1.5462 -2.002,-3.0697 -2.002,-3.3867 0,-0.3183 -1.5896,-3.062 -3.5332,-6.0996 -1.9441,-3.03687 -3.8216,-6.30928 -4.1797,-7.26956 -0.3558,-0.96085 -2.5216,-4.67269 -4.8144,-8.24805 -2.2923,-3.57561 -5.2053,-8.30176 -6.4805,-10.50195 -1.2723,-2.20043 -3.7707,-6.25315 -5.5508,-9.00586 -1.781,-2.75243 -4.6612,-7.70272 -6.3984,-11 -1.74,-3.29812 -5.8372,-10.27233 -9.0898,-15.49805 -5.2745,-8.45031 -9.9969,-16.39639 -16.5606,-27.875 -1.1412,-1.99625 -5.9045,-9.93085 -10.5644,-17.63086 -4.6698,-7.70007 -13.1576,-21.87865 -18.8633,-31.5039 -5.7078,-9.62542 -13.648,-22.90394 -17.6426,-29.50391 -4.0035,-6.59981 -10.5357,-17.62794 -14.5176,-24.50391 -3.9894,-6.87489 -8.7431,-14.63578 -10.5625,-17.24218 -1.8278,-2.60718 -3.3183,-4.99055 -3.3183,-5.29688 0,-0.64808 -8.4841,-15.50476 -11.4727,-20.08789 -3.5394,-5.4293 -7.9142,-12.67401 -11.5351,-19.11328 -5.853,-10.3963 -16.0955,-27.52771 -19.002,-31.77148 -1.5103,-2.19969 -3.5337,-5.57677 -4.5,-7.50196 -0.9645,-1.9252 -6.5418,-11.49646 -12.3926,-21.26758 -5.8523,-9.77141 -11.5804,-19.44772 -12.7344,-21.50195 -1.1519,-2.05448 -3.9355,-6.66091 -6.1894,-10.23633 -2.2548,-3.57443 -7.7509,-12.80379 -12.2129,-20.5039 -4.4625,-7.70106 -9.9668,-16.92663 -12.2246,-20.50196 -2.2587,-3.57472 -5.671,-9.4266 -7.5801,-13.00195 -1.9063,-3.57565 -4.0862,-7.21178 -4.8496,-8.08008 -0.7542,-0.86844 -1.375,-1.87197 -1.375,-2.23047 0,-0.35863 -1.6841,-3.249 -3.7422,-6.42187 -5.0349,-7.76553 -8.315,-13.26772 -19.2715,-32.32813 -2.4762,-4.30724 -5.854,-9.86778 -7.5039,-12.35351 l -3.0019,-4.52149 -4.1719,-0.0371 -4.1719,-0.0351 -2.834,1.48633 c -3.5098,1.84184 -12.0285,5.51367 -12.7929,5.51367 -0.3095,0 -4.212,1.79962 -8.668,4 -4.4604,2.19944 -8.5512,4.00195 -9.0918,4.00195 -1.1002,0 -3.9258,1.22867 -17.5742,7.64258 -5.0987,2.39701 -10.0765,4.35937 -11.0606,4.35937 -0.988,0 -2.6652,0.6593 -3.7382,1.4668 -2.2487,1.70084 -5.0579,1.96506 -5.9297,0.55664 l -0.6035,-0.97656 3.4843,-10.27539 c 3.1253,-9.22184 4.6923,-13.22846 9.0899,-23.27735 0.7222,-1.64938 2.5079,-6.3584 3.9765,-10.46484 1.467,-4.10634 3.0251,-7.93279 3.4727,-8.50195 0.4381,-0.56916 1.1189,-2.35673 1.5059,-3.97266 0.3873,-1.61572 2.2069,-6.14325 4.039,-10.06055 1.8365,-3.91654 3.8093,-8.67141 4.3828,-10.56445 0.5812,-1.89283 2.2538,-6.59097 3.7285,-10.4414 1.4744,-3.84968 2.8997,-8.71055 3.17,-10.80079 l 0.4824,-3.80078 -1.5,-1.70117 c -0.8233,-0.93514 -2.9161,-4.40147 -4.6465,-7.70117 -3.631,-6.91011 -5.7343,-10.42581 -11.7227,-19.58984 -2.3678,-3.62343 -4.6069,-7.37843 -4.9746,-8.3418 -0.3718,-0.96332 -4.2774,-7.67525 -8.6836,-14.91406 -13.5624,-22.29084 -16.3992,-27.01226 -18.8554,-31.35743 -1.3035,-2.30658 -4.664,-7.93342 -7.4707,-12.50195 -7.8745,-12.8273 -14.7097,-24.34702 -16.92,-28.51953 -1.7349,-3.27846 -3.5066,-6.18414 -10.24995,-16.81641 -0.6904,-1.0867 -1.68137,-2.96414 -2.20508,-4.17187 -0.52431,-1.20772 -2.44683,-4.3593 -4.27344,-7.00195 -1.82548,-2.64186 -3.87615,-6.07149 -4.55664,-7.6211 -0.68069,-1.54991 -3.18212,-5.82697 -5.55859,-9.50195 -2.37597,-3.67567 -6.74806,-10.95964 -9.7168,-16.18555 -2.96824,-5.22453 -6.78138,-11.52487 -8.47265,-14 -1.69112,-2.47553 -4.35484,-6.97731 -5.91602,-10.00195 -1.56195,-3.02542 -4.21334,-7.5057 -5.89453,-9.95508 -1.68139,-2.44924 -4.61334,-7.39873 -6.51563,-11 -1.90205,-3.60122 -4.68384,-8.34868 -6.18164,-10.54883 -1.49725,-2.20046 -4.04433,-6.47659 -5.6582,-9.50195 -1.61379,-3.02538 -4.60184,-7.97113 -6.63867,-10.98828 -2.03708,-3.01796 -3.70313,-5.81419 -3.70313,-6.21485 0,-0.40061 -2.37416,-4.45924 -5.27539,-9.01562 -2.90072,-4.55709 -6.54131,-10.66839 -8.08984,-13.58008 -1.5491,-2.91166 -4.24164,-7.49301 -5.98242,-10.18164 -1.74095,-2.68838 -3.90291,-6.1561 -4.80469,-7.70703 -0.90097,-1.5509 -5.12677,-8.67148 -9.38867,-15.82227 -4.26258,-7.15004 -8.47759,-14.35853 -9.36719,-16.01757 -3.99107,-7.44456 -10.39859,-17.42493 -12.27734,-19.125 l -2.0586,-1.861333 -123.5664,-0.232422 z m 507.78317,112.265627 -122.2832,0.21289 -1.6289,1.62695 -1.6269,1.625 8.75,14.87696 c 4.8078,8.18195 11.5751,19.60113 15.039,25.37695 3.4647,5.77477 8.1372,13.65148 10.3828,17.50195 2.2478,3.85039 6.7555,11.27713 10.0176,16.50195 3.2626,5.22563 6.8875,11.40317 8.0528,13.72461 1.1674,2.32227 3.1218,5.6968 4.3437,7.5 3.09,4.55539 14.6897,24.09304 18.5645,31.28321 0.889,1.64938 3.0103,5.02461 4.7187,7.5 1.6989,2.47423 4.527,7.20162 6.2852,10.50195 1.7488,3.30042 6.2049,10.98337 9.8867,17.07227 3.6842,6.08786 8.6579,14.41453 11.0566,18.50195 2.3897,4.08652 5.1218,8.5564 6.0664,9.93164 0.9459,1.37524 2.0128,3.29285 2.377,4.26172 0.3581,0.96865 3.1411,5.57767 6.1875,10.24219 3.0377,4.66359 5.5254,8.77602 5.5254,9.13671 0,0.36048 1.6046,3.06957 3.5644,6.01954 l 3.5625,5.36523 4.0762,2.07813 c 2.2367,1.14215 5.9232,2.67456 8.1895,3.40429 2.271,0.72995 7.4973,2.7492 11.625,4.48828 8.6733,3.65591 14.0984,5.70849 18.9492,7.17188 1.8935,0.57112 5.0383,1.8919 6.9902,2.9375 1.9517,1.04575 3.9582,1.90234 4.4609,1.90234 0.9526,0 17.5616,6.53466 31.2637,12.30078 4.4728,1.88244 9.2835,3.71162 10.6934,4.06446 l 2.5547,0.64062 0.6289,1.99024 0.6347,1.98828 -0.6757,1.09179 c -0.7328,1.1843 -3.473,2.45618 -22.4688,10.41797 -6.8798,2.88359 -16.6314,7.17175 -21.6738,9.5293 l -9.168,4.28516 -1.3184,2.46093 -1.3164,2.46094 2.8438,5.13867 c 1.5643,2.82612 3.9501,6.93921 5.2988,9.13867 6.6149,10.77165 15.8174,26.32687 17.1602,29.00391 0.8304,1.65035 3.1634,5.4774 5.1875,8.50195 2.0242,3.02536 6.492,10.45116 9.9316,16.50196 5.7304,10.08139 10.391,17.65041 15.2188,24.71289 1.018,1.49043 1.8515,2.95617 1.8515,3.25781 0,0.71154 8.9416,16.05303 14.5821,25.03516 2.42,3.84956 4.8568,8.04866 5.4179,9.32812 0.5612,1.27916 2.3059,4.20376 3.877,6.5 1.5736,2.29622 4.3621,7.10131 6.1972,10.67578 1.8364,3.57562 4.5634,8.07748 6.0411,10.00196 1.487,1.92522 4.3037,6.50436 6.25,10.17382 1.9529,3.67065 5.8282,10.30319 8.6074,14.74024 2.7875,4.43615 5.0605,8.33471 5.0605,8.66015 0,0.32536 1.4969,2.91907 3.3262,5.76172 4.9208,7.63614 6.5316,10.29695 9.082,14.96094 1.2576,2.31527 4.1585,7.13549 6.4297,10.71094 3.725,5.86036 7.5903,12.25183 13.8262,22.85156 1.1836,2.00879 3.1748,5.6454 4.4297,8.08203 1.2552,2.43659 4.378,7.61357 6.9414,11.50196 6.0372,9.15485 13.7555,21.99946 16.2812,27.07421 1.0954,2.2003 4.1291,7.37549 6.7442,11.5 2.6154,4.12556 6.547,10.65144 8.7363,14.50196 2.191,3.84948 6.1251,10.60138 8.7422,15.00195 2.6194,4.39976 6.3456,10.70235 8.2832,14.00195 1.9378,3.30043 4.9664,8.25162 6.7324,11.00196 1.7674,2.74933 3.8407,6.18211 4.6094,7.625 0.7693,1.44215 4.9997,8.56442 9.4023,15.82422 4.4018,7.26033 10.9304,18.12559 14.5078,24.14257 3.5805,6.01818 9.4239,15.77437 12.9922,21.67969 3.5683,5.90523 7.0497,11.86576 7.7344,13.24024 1.3596,2.72462 1.4184,2.81802 8.875,14.5039 2.8087,4.40259 6.6895,10.92955 8.627,14.50195 1.9367,3.57378 6.1301,10.77375 9.3086,16 10.2166,16.79206 10.9482,18.01966 14.1054,23.80666 l 3.1074,5.6953 3.3965,1.752 3.3946,1.7519 123.5722,-0.2519 123.5723,-0.252 0.2852,-3 0.289,-3 -6.2148,-10 c -3.4171,-5.4923 -7.2924,-12.0274 -8.6094,-14.5039 -3.3935,-6.36968 -5.0319,-9.2752 -6.2168,-11.00001 -2.4645,-3.58589 -7.1838,-11.33126 -13.7227,-22.5039 -3.8632,-6.60023 -7.9704,-13.5768 -9.1289,-15.50196 -1.1568,-1.92523 -3.782,-6.42465 -5.8339,-10 -2.0523,-3.57516 -4.9702,-8.33114 -6.4747,-10.56836 -1.514,-2.23737 -4.1542,-6.73877 -5.8789,-10.00195 -1.718,-3.26362 -4.8785,-8.63419 -7.0234,-11.93359 -2.1438,-3.30065 -6.6587,-10.72645 -10.0273,-16.50196 -9.6758,-16.57083 -17.7495,-30.11863 -20.8399,-35.00586 -3.7164,-5.86332 -20.6788,-34.3918 -25.1719,-42.33789 -1.9298,-3.4022 -4.0728,-7.08313 -4.7734,-8.17773 -4.0606,-6.36448 -14.7455,-24.18762 -21.1172,-35.22266 -4.0541,-7.02517 -8.8501,-15.02497 -10.6543,-17.77539 -1.8005,-2.75032 -4.2395,-6.79983 -5.4121,-9 -2.3088,-4.30441 -4.2709,-7.65507 -10.6777,-18.23047 -3.493,-5.76742 -10.3379,-17.35691 -13.8965,-23.52929 -0.5522,-0.9634 -4.8386,-8.06369 -9.5176,-15.77539 -4.6769,-7.7113 -9.405,-15.5733 -10.5059,-17.47071 -2.0297,-3.50229 -6.9843,-11.82771 -22.0292,-37.00976 -4.6001,-7.7009 -11.6222,-19.62598 -15.5997,-26.50196 -6.898,-11.927 -11.2944,-19.11118 -16.623,-27.1582 -1.3309,-2.00935 -3.6223,-5.89274 -5.0996,-8.62891 -4.2646,-7.90576 -13.2927,-23.35646 -16.2031,-27.72265 -1.4569,-2.20021 -5.2326,-8.50144 -8.3809,-14.00196 -3.1394,-5.49989 -7.5542,-12.92658 -9.8008,-16.50195 -2.2467,-3.57571 -5.0394,-8.18627 -6.2051,-10.24805 -6.2104,-10.9848 -17.2983,-29.7643 -19.6367,-33.25781 -1.4722,-2.20041 -4.3576,-6.92448 -6.4121,-10.5 -2.0545,-3.57521 -5.6906,-9.65207 -8.084,-13.50195 -5.4762,-8.8284 -12.7263,-21.23542 -14.3086,-24.50391 -0.6664,-1.3752 -5.9447,-10.15154 -11.7304,-19.50195 -5.7841,-9.35018 -11.9246,-19.7035 -13.6446,-23.00391 -1.7188,-3.29954 -4.144,-7.34982 -5.3828,-9 -2.187,-2.90187 -4.7698,-7.21038 -8.6855,-14.50195 -1.0328,-1.92516 -4.5321,-7.77719 -7.7774,-13.00195 -3.2434,-5.22572 -8.4837,-14.00147 -11.6465,-19.50196 -3.1596,-5.49992 -8.6516,-14.72906 -12.1992,-20.5039 -3.5475,-5.77579 -7.4363,-12.30188 -8.6445,-14.50196 -1.2045,-2.19944 -7.285,-12.55151 -13.5078,-23.00195 -6.2252,-10.45041 -15.081,-25.35402 -19.6875,-33.11719 -8.698,-14.66879 -12.2274,-19.12193 -15.7793,-19.87304 -1.152,-0.24398 -57.1193,-0.3479 -124.3809,-0.23047 z m 771.8887,1038.15816 c -0.2351,0 -0.47,0.014 -0.7051,0.022 0.2661,0.063 0.5348,0.1087 0.8008,0.1719 -0.024,-0.067 -0.072,-0.1261 -0.096,-0.1934 z M 349.10693,1438.9327 c -2.71101,4.1657 -5.67677,8.7588 -6.71484,10.4336 -0.21082,0.34 -0.62307,0.9653 -0.85547,1.3379 2.70577,-3.8049 5.26827,-7.6992 7.57031,-11.7715 z" />
  <path
     id="path448"
     style="fill:#e72026;stroke-width:1.00248"
     d="m 754.54102,378.67969 -2.67969,4.5957 c -1.47419,2.528 -4.53147,7.45462 -6.79297,10.94727 -2.26149,3.4925 -7.16174,11.26048 -10.88867,17.26172 -16.32904,26.29328 -23.76284,38.11938 -27.70899,44.07617 -1.46468,2.21087 -4.34595,6.95803 -6.40429,10.55078 -4.08226,7.12509 -11.75643,19.43987 -19.29883,30.97265 -2.64608,4.04595 -5.49127,8.56953 -6.32422,10.05079 -0.83295,1.48123 -3.11411,5.18069 -5.06836,8.2207 -4.74875,7.38712 -18.25543,29.05567 -23.17773,37.18359 -2.1758,3.59275 -5.93208,9.50545 -8.34766,13.13867 -2.41558,3.63319 -4.39258,6.9445 -4.39258,7.35938 0,0.41487 -2.50503,4.38896 -5.56641,8.83008 -3.06131,4.44099 -5.98269,9.04305 -6.49218,10.22656 -0.5095,1.18351 -4.72514,8.02939 -9.36719,15.21484 -4.64196,7.1854 -10.55952,16.68376 -13.15039,21.10547 -2.59078,4.42184 -7.50168,12.33514 -10.91406,17.58594 -3.41243,5.25089 -9.76127,15.27315 -14.10742,22.27148 -7.07176,11.38683 -11.53409,18.54135 -22.09961,35.42969 -1.75832,2.81058 -5.63128,8.95414 -8.60743,13.65235 -2.9762,4.69807 -6.61656,10.57717 -8.08789,13.06445 -1.47142,2.48729 -5.69665,9.35032 -9.39062,15.25195 -3.69401,5.90178 -8.9668,14.33326 -11.7168,18.73633 -2.74991,4.40315 -6.23005,9.97689 -7.73437,12.38477 -1.50437,2.40781 -5.63764,8.90056 -9.1836,14.42773 -3.546,5.52725 -7.35127,11.70691 -8.45508,13.73242 -1.10375,2.02561 -4.86958,8.13025 -8.36914,13.56641 -3.4996,5.43611 -7.42938,11.69338 -8.73242,13.9043 -1.30296,2.21078 -4.84893,7.86429 -7.88086,12.5625 -11.79966,18.28389 -14.03985,21.85396 -18.23437,29.0625 -2.38626,4.10072 -6.60554,10.97157 -9.375,15.26953 -2.7695,4.29783 -7.73516,12.18935 -11.03516,17.53515 -3.29991,5.34595 -8.05638,12.94613 -10.57031,16.88867 -9.48899,14.88159 -11.64961,18.35859 -14.43555,23.2461 -1.57536,2.76365 -5.25655,8.57779 -8.17969,12.91992 -2.92318,4.34222 -5.31445,8.14341 -5.31445,8.44727 0,0.30385 -1.97199,3.53484 -4.38086,7.17968 -2.40896,3.64478 -5.75977,8.88868 -7.44726,11.65235 -12.0108,19.67005 -19.46917,31.62805 -25.70118,41.20315 -3.95687,6.08 -9.469,14.961 -12.24804,19.7343 -2.77909,4.7738 -6.96073,11.4911 -9.29297,14.9239 -4.26486,6.2791 -13.92969,22.1148 -13.92969,22.8242 0,0.2093 -2.62555,4.3216 -5.83398,9.1367 -3.20849,4.8152 -7.12224,11.0157 -8.69727,13.7793 -2.72536,4.7822 -15.60926,25.0749 -19.59375,30.8613 -1.03118,1.4976 -1.875,3.139 -1.875,3.6465 0,0.5074 -0.70181,1.5062 -1.55859,2.2207 -0.85677,0.7147 -2.20269,2.6924 -2.99219,4.3946 -0.78951,1.7023 -3.12714,5.6798 -5.19336,8.8378 -2.06613,3.1585 -7.97136,12.6547 -13.12305,21.1036 -5.15172,8.4488 -10.55177,17.0719 -12,19.1621 -3.67107,5.2987 -7.40845,11.2482 -11.5,18.3086 -1.92187,3.3163 -5.88688,9.7246 -8.8125,14.2402 -2.92565,4.5155 -7.57031,11.9165 -10.32031,16.4473 -2.74991,4.5309 -7.7,12.3494 -11,17.373 -3.29991,5.0234 -7.47754,11.763 -9.2832,14.9766 -1.80567,3.2145 -6.30572,10.5626 -10,16.3261 -3.69434,5.7641 -8.7418,13.721 -11.2168,17.6836 -11.39213,18.2401 -12.95271,20.6838 -14.66992,22.9727 -1.00643,1.3416 -3.18009,4.8309 -4.83008,7.7539 -4.90233,8.6847 -14.61873,24.4312 -20.24414,32.8086 -2.89084,4.3051 -5.25586,8.0894 -5.25586,8.4102 0,0.3209 -1.57502,3.1904 -3.5,6.375 -3.70709,6.1324 -4.28843,8.5562 -2.25,9.3828 0.6875,0.2788 57.50098,0.4973 126.25,0.4863 l 125,-0.02 2.5,-0.6953 2.5,-0.6934 5.2168,-8.502 c 2.86891,-4.6758 6.60428,-10.5361 8.30273,-13.0234 1.69837,-2.4873 7.51611,-11.7579 12.92578,-20.6016 9.67696,-15.8193 14.96128,-24.259 22.66016,-36.1796 4.48305,-6.9415 4.48721,-6.9473 10.17969,-16.7442 2.3568,-4.056 6.05813,-9.8623 8.22461,-12.9023 2.16643,-3.0401 4.67004,-6.8829 5.56445,-8.5411 3.70502,-6.8685 5.26851,-9.4524 10.71289,-17.6992 3.14211,-4.7592 5.71289,-8.9475 5.71289,-9.3066 0,-0.3592 1.49352,-2.7961 3.31836,-5.416 1.82494,-2.6197 5.48492,-8.381 8.13281,-12.8028 2.64785,-4.4219 7.16565,-11.6581 10.04102,-16.08 2.87537,-4.4218 6.18799,-9.9335 7.35937,-12.25 l 2.12891,-4.2129 -1.41016,-7.8477 c -0.77513,-4.3163 -1.69794,-11.6905 -2.05078,-16.3887 -0.35283,-4.6982 -1.07443,-10.212 -1.60351,-12.2519 -0.52908,-2.04 -1.61145,-8.5977 -2.40625,-14.5723 -2.13767,-16.069 -5.18479,-35.3641 -6.39649,-40.5097 -0.58576,-2.4873 -1.07644,-7.1365 -1.08984,-10.3321 l -0.0234,-5.8105 1.38477,-0.5332 1.38672,-0.5352 3.36328,1.834 c 3.12039,1.701 13.15443,9.2499 23.86523,17.9551 2.475,2.0114 7.44043,5.759 11.03516,8.3281 3.59468,2.5692 8.31048,6.1411 10.47851,7.9375 l 3.94141,3.2656 h 1.63086 1.62891 l 7.16601,-11.0761 c 3.94075,-6.0922 8.57055,-13.4404 10.28906,-16.3301 3.27305,-5.5039 10.81155,-17.3956 13.97657,-22.0469 1.01904,-1.4976 1.85351,-2.9356 1.85351,-3.1953 0,-0.2597 1.80009,-3.1948 4,-6.5234 2.2,-3.3287 4,-6.3045 4,-6.6114 0,-0.3069 3.42722,-5.869 7.61524,-12.3593 4.18789,-6.491 8.75823,-13.6095 10.15625,-15.8204 1.39797,-2.2109 3.37089,-5.2465 4.38476,-6.7441 1.01396,-1.4976 1.84375,-2.974 1.84375,-3.2812 0,-0.5857 4.03736,-7.0425 10.60547,-16.959 2.1416,-3.2332 4.52455,-7.076 5.29492,-8.541 0.77046,-1.4649 4.21743,-7.0172 7.66016,-12.33794 3.44269,-5.32066 6.99254,-10.97412 7.88672,-12.5625 0.89418,-1.58828 2.93007,-4.92292 4.52539,-7.41015 1.59532,-2.48729 4.90328,-7.91507 7.35156,-12.06055 2.44838,-4.14538 7.31557,-11.90019 10.81445,-17.23438 3.49885,-5.33423 7.93642,-12.30283 9.86133,-15.48437 1.925,-3.18155 6.66207,-10.80025 10.52735,-16.93164 3.86515,-6.13144 8.3323,-13.41018 9.92578,-16.17383 1.59343,-2.76356 6.64396,-10.76312 11.22265,-17.77539 4.57864,-7.01227 8.32422,-13.16015 8.32422,-13.66211 0,-0.50197 0.90009,-1.73004 2,-2.73047 1.1,-1.00044 2,-2.26836 2,-2.8164 0,-1.01244 4.12625,-7.66826 11.12305,-17.94141 2.12867,-3.12544 4.20888,-6.54295 4.62304,-7.59375 0.41418,-1.0508 5.70405,-9.68419 11.75391,-19.18555 11.96392,-18.78925 15.18361,-24.01685 16.21485,-26.32812 0.36986,-0.8291 3.84767,-6.34943 7.72851,-12.26758 10.1362,-15.45716 14.94952,-23.14643 15.80078,-25.24024 0.40936,-1.00707 3.38851,-5.75619 6.6211,-10.55273 3.23252,-4.7964 7.14923,-10.98248 8.70312,-13.74609 1.554,-2.76365 6.1826,-10.22577 10.28516,-16.58203 11.6788,-18.09486 13.77199,-21.43012 15.13672,-24.11915 0.70122,-1.38178 4.59061,-7.56379 8.64257,-13.73828 4.05192,-6.17453 7.36719,-11.4927 7.36719,-11.81836 0,-0.32567 1.48827,-2.7358 3.30664,-5.35546 1.81827,-2.61981 4.82283,-7.44665 6.67774,-10.72657 3.5932,-6.35357 8.72243,-14.53248 11.70117,-18.6582 0.99767,-1.38183 2.81515,-4.39342 4.03906,-6.69141 1.22392,-2.29802 5.83652,-9.72578 10.25,-16.50781 l 8.02539,-12.33203 v -1.93164 -1.92969 l -3.69922,-6.18164 c -2.0346,-3.3996 -4.23888,-6.86035 -4.89843,-7.68945 -0.65959,-0.82909 -2.22149,-3.31652 -3.47071,-5.52735 -1.24931,-2.21087 -3.30542,-5.82813 -4.56836,-8.03906 -1.26303,-2.21083 -2.97817,-5.37701 -3.81054,-7.03515 -0.83242,-1.65819 -2.08474,-3.89364 -2.78321,-4.9668 -3.03394,-4.6609 -7.86359,-12.72224 -10.33789,-17.25781 -1.47273,-2.69961 -4.12203,-7.16995 -5.88867,-9.9336 -1.76663,-2.76352 -5.57317,-9.09574 -8.45898,-14.07031 -2.88586,-4.97449 -6.55248,-11.07922 -8.14649,-13.56641 -1.59393,-2.48724 -3.33773,-5.5176 -3.875,-6.73437 -0.53726,-1.21677 -2.22313,-4.15727 -3.74609,-6.5332 -3.5614,-5.55614 -8.68513,-14.1756 -19.60938,-32.98829 -4.83554,-8.32726 -10.44325,-17.72043 -12.46289,-20.87304 -2.01972,-3.15266 -4.39542,-7.088 -5.27929,-8.7461 -3.54465,-6.64955 -7.29916,-13.24697 -9.43555,-16.58203 -1.23924,-1.93447 -4.84904,-7.69975 -8.02149,-12.8125 l -5.76757,-9.29687 h -1.32813 z m 160.23046,266.98437 -1.5371,0.59375 -1.53907,0.5918 -4.77539,7.86719 c -2.62678,4.32612 -6.80437,11.03128 -9.2832,14.90039 -4.65407,7.26441 -6.27941,9.83794 -12.68555,20.09961 -2.07034,3.31633 -4.60304,7.25432 -5.6289,8.75195 -1.02592,1.49762 -1.86524,3.01153 -1.86524,3.36328 0,0.35173 -2.39167,4.32695 -5.31445,8.83399 -2.92278,4.50689 -6.56539,10.2296 -8.0957,12.71679 -1.53036,2.48729 -5.44078,8.70894 -8.6875,13.82617 -3.24686,5.1172 -5.90235,9.5093 -5.90235,9.75977 0,0.25049 -2.52233,4.17803 -5.60547,8.72852 -3.08318,4.55036 -5.8613,8.97791 -6.17187,9.83789 -0.51457,1.42483 -3.51391,6.23434 -15.70508,25.17968 -8.39643,13.04823 -11.25762,17.63528 -12.53906,20.09961 -0.71851,1.38183 -3.62616,6.1309 -6.46094,10.55274 -2.83469,4.42171 -7.775,12.33504 -10.97852,17.58593 -3.20357,5.25085 -9.29139,14.97476 -13.52734,21.60743 -4.23586,6.63263 -9.15918,14.54596 -10.94141,17.58593 -1.78218,3.03992 -7.01791,11.40644 -11.63476,18.5918 -4.6168,7.18544 -10.23098,16.23059 -12.47461,20.09961 -2.24363,3.86912 -6.4144,10.515 -9.26953,14.76758 -2.85518,4.25252 -7.44141,11.43313 -10.19141,15.95703 -2.74991,4.52401 -7.06,11.44673 -9.57812,15.38281 -2.51818,3.93621 -7.46484,11.90532 -10.99219,17.70899 -3.52726,5.80354 -8.66749,14.05017 -11.42188,18.32617 -2.75443,4.27573 -6.80781,10.78183 -9.00781,14.45903 -2.19992,3.6768 -6.86582,11.0332 -10.36719,16.3457 -3.50142,5.3124 -6.65147,10.3687 -7,11.2363 -0.34854,0.8676 -4.68281,7.986 -9.63281,15.8183 -4.94987,7.8328 -9.45001,15.0375 -10,16.0098 -0.55,0.9724 -2.61932,4.2549 -4.59765,7.2949 -1.97838,3.04 -5.80343,9.0317 -8.5,13.3145 -2.69663,4.2827 -6.13145,9.7105 -7.63282,12.0605 -1.50146,2.35 -3.18474,5.3119 -3.74218,6.5821 -0.98848,2.2522 -10.23056,16.7952 -15.76368,24.8066 -1.52017,2.201 -4.72746,7.4012 -7.12695,11.5566 -2.39941,4.1553 -6.337,10.5269 -8.75,14.1602 -2.41292,3.6333 -4.38672,7.2774 -4.38672,8.0957 v 1.4863 l 3.25,3.0196 c 4.43709,4.1231 16.07171,13.1957 22.76953,17.7539 3.03581,2.0661 7.3109,5.3362 9.5,7.2675 2.18899,1.9313 7.35561,5.8409 11.48047,8.6875 4.125,2.8467 8.96258,6.5518 10.75,8.2344 l 3.25,3.0586 v 1.7539 c 0,0.9644 -0.44477,2.0296 -0.98828,2.3672 -1.77372,1.1016 -23.27346,4.6165 -33.51172,5.4785 -5.49986,0.4631 -14.05,1.5357 -19,2.3828 -9.18286,1.5713 -30.51085,4.8768 -42.86914,6.6446 l -6.86719,0.9824 -1.96875,1.791 c -1.71196,1.5571 -7.79492,9.952 -7.79492,10.7578 0,0.5219 -9.48379,15.9966 -14.54101,23.7266 -2.7122,4.1445 -5.78216,9.1201 -6.82227,11.0547 -1.04014,1.9345 -4.75882,7.8942 -8.26367,13.2441 -3.5049,5.3498 -6.37305,10.142 -6.37305,10.6484 0,0.5063 -0.89999,1.7379 -2,2.7383 -1.09991,1.0005 -2,2.2229 -2,2.7168 0,0.494 -1.8,3.6225 -4,6.9512 -2.19991,3.3286 -4,6.2689 -4,6.5352 0,0.2663 -2.5489,4.4173 -5.66406,9.2246 -3.11516,4.8074 -6.65023,10.3251 -7.85547,12.2597 -1.20524,1.9345 -3.94394,6.2974 -6.08594,9.6973 -2.14209,3.4 -6.10853,9.7321 -8.81445,14.0703 -2.70584,4.3383 -6.342,10.1484 -8.08008,12.9121 -1.738,2.7636 -6.49918,10.3726 -10.58008,16.9082 -4.08094,6.5355 -8.09492,12.9401 -8.91992,14.2324 -0.82491,1.2923 -3.01488,4.99 -4.86523,8.2168 -1.85035,3.2267 -5.86144,9.71 -8.91407,14.4082 -3.05266,4.6982 -6.52557,10.1261 -7.71875,12.0606 -4.49726,7.2918 -14.15769,22.4559 -18.25195,28.6523 -2.33741,3.5376 -4.25,6.6648 -4.25,6.9493 0,0.284 -3.20433,5.619 -7.12109,11.8535 -3.91682,6.2345 -9.53316,15.2334 -12.48047,19.998 -2.94731,4.7646 -6.83062,10.952 -8.62891,13.75 -1.79837,2.7981 -5.96953,9.4441 -9.26953,14.7695 -3.29991,5.3254 -6.90929,11.1215 -8.01953,12.8809 -30.4586,48.2656 -32.7632,52.3268 -30.81445,54.2852 l 0.66797,0.6699 H 436.75586 563.7207 l 3.40235,-3.625 c 1.87161,-1.9942 4.28552,-5.274 5.36328,-7.2871 1.07776,-2.0129 2.97427,-5.3285 4.21484,-7.3692 5.20751,-8.5658 13.47901,-21.8377 17.23047,-27.6445 10.41846,-16.1261 15.52539,-24.2585 15.52539,-24.7285 0,-0.2822 2.81259,-4.8151 6.25,-10.0723 6.07197,-9.2866 10.39284,-16.178 16.35547,-26.0898 6.07713,-10.1012 6.97392,-11.5626 9.75,-15.875 1.57062,-2.4399 3.85512,-6.0187 5.07617,-7.9532 1.22094,-1.9341 3.87374,-6.1115 5.89453,-9.2812 2.02073,-3.1697 3.67383,-6.0213 3.67383,-6.3379 0,-0.3165 2.02508,-3.4884 4.5,-7.0469 2.47499,-3.5586 4.5,-6.7048 4.5,-6.9922 0,-0.2874 1.65301,-3.1153 3.67383,-6.2851 2.02083,-3.1696 4.72083,-7.4585 6,-9.5313 2.2822,-3.6979 3.55183,-5.7262 10.54687,-16.8339 11.97077,-19.0098 18.33124,-29.1783 20.64258,-33.0059 2.74473,-4.5454 6.47195,-10.5223 17.64844,-28.2969 3.64933,-5.8037 10.71076,-17.1085 15.69141,-25.123 4.98051,-8.0137 10.91634,-17.5128 13.18945,-21.1055 2.27311,-3.5927 4.65792,-7.4355 5.30078,-8.541 0.64286,-1.1055 6.93802,-11.2599 13.98828,-22.5645 7.05017,-11.3046 13.26836,-21.3022 13.81836,-22.2168 0.55,-0.9147 2.28483,-3.65 3.85547,-6.0781 5.51564,-8.527 7.38211,-11.5182 12.1582,-19.4883 2.64975,-4.4218 7.21867,-11.7079 10.15235,-16.1914 2.93363,-4.4834 5.33398,-8.4051 5.33398,-8.7148 0,-0.3097 1.91259,-3.4851 4.25,-7.0547 8.03505,-12.2702 14.25531,-22.1523 16.94922,-26.9297 1.48433,-2.6323 5.25072,-8.7735 8.36914,-13.6484 3.11851,-4.8748 6.68115,-10.4463 7.91797,-12.3809 1.23683,-1.9345 3.99553,-6.3766 6.13086,-9.8711 2.13533,-3.4945 7.13196,-11.4096 11.10351,-17.5879 3.9715,-6.1782 8.63107,-13.7197 10.35352,-16.7597 1.72244,-3.04 4.5939,-7.7892 6.38086,-10.5528 8.24284,-12.7483 12.42991,-19.4037 14.54297,-23.1133 1.25938,-2.2109 4.6382,-7.6386 7.50781,-12.0605 4.40681,-6.7903 9.38412,-14.6928 15.21094,-24.1523 0.66938,-1.0867 2.67507,-4.4639 4.45703,-7.504 1.78196,-3.0395 5.52732,-8.9189 8.32422,-13.0644 2.7968,-4.1455 7.45339,-11.6073 10.3457,-16.582 2.8924,-4.97473 8.39059,-13.79209 12.21875,-19.59574 3.8284,-5.80353 7.24174,-11.15366 7.58594,-11.88867 0.7422,-1.5845 8.6509,-14.48338 16.35156,-26.66992 3.025,-4.78703 6.62509,-10.50025 8,-12.69531 1.375,-2.19511 4.56506,-7.27572 7.08787,-11.29102 2.523,-4.01522 9.8816,-15.89279 16.3535,-26.39453 12.8637,-20.87332 15.8637,-25.65561 18.8536,-30.04688 l 1.9843,-2.91211 0.3985,-4.12304 0.3984,-4.1211 -3.7871,-6.27539 c -16.0186,-26.53283 -25.2891,-42.37891 -25.2891,-43.22851 0,-0.55085 -0.6856,-1.57283 -1.5234,-2.27149 -0.8378,-0.69876 -4.1004,-5.7624 -7.25,-11.25195 -3.14972,-5.48941 -6.73063,-11.64363 -7.95704,-13.67578 -1.2265,-2.03214 -2.55457,-4.37404 -2.95117,-5.20313 -0.3966,-0.82905 -3.47027,-6.02943 -6.83008,-11.55664 -7.79195,-12.81818 -12.99976,-21.69854 -13.85156,-23.61718 -0.3681,-0.8291 -1.89879,-3.42039 -3.40234,-5.75977 -2.2917,-3.56552 -13.85826,-22.94497 -20.25391,-33.93555 -0.965,-1.65815 -4.70886,-7.99028 -8.32031,-14.07031 -3.6115,-6.0799 -9.16036,-15.55153 -12.33008,-21.04883 -3.16963,-5.49715 -6.7193,-11.1123 -7.88867,-12.47851 z" />
  <path
     style="fill:#020202;stroke-width:1.01159"
     d="m 617.59976,1616.8129 -1.11847,-1.3365 5.31158,-8.3636 c 2.92138,-4.6001 6.22587,-9.8739 7.34334,-11.72 6.27978,-10.3733 8.16921,-13.2753 10.3204,-15.8511 1.30793,-1.5661 2.37808,-3.2612 2.37808,-3.7671 0,-0.5055 1.82795,-3.5304 4.06215,-6.7221 2.2342,-3.1914 4.0628,-6.1147 4.06352,-6.496 7.4e-4,-0.3813 3.33236,-5.5942 7.4036,-11.584 4.07124,-5.9903 8.95721,-13.6109 10.85771,-16.9351 1.90049,-3.3241 4.22781,-7.1771 5.17179,-8.5621 5.77216,-8.4693 17.20334,-26.1153 17.20334,-26.5566 0,-0.9077 8.3602,-14.0561 11.61634,-18.2695 1.71261,-2.2161 3.97448,-5.7083 5.02631,-7.76 1.05184,-2.0522 2.74052,-4.6123 3.75265,-5.6896 1.01208,-1.0774 2.57605,-3.478 3.47542,-5.3351 2.6604,-5.4935 4.70984,-8.8332 12.45934,-20.3031 4.04396,-5.9854 7.35267,-11.117 7.35267,-11.4039 0,-0.2869 2.88947,-4.9088 6.42104,-10.2712 6.61528,-10.0448 8.01978,-12.2533 19.49525,-30.6518 l 6.75397,-10.829 h 1.69671 c 0.93318,0 154.81872,-3e-4 341.9679,0 l 340.2714,0.01 0.7287,0.7524 0.7288,0.7526 -0.948,20.6503 c -1.5185,33.0764 -2.0873,55.6824 -1.4629,58.1491 l 0.5796,2.2904 h 2.0771 2.0769 l 16.9513,-15.9401 c 9.3233,-8.7671 23.3503,-21.7993 31.171,-28.9607 7.8206,-7.1613 20.0348,-18.5735 27.1428,-25.3602 l 12.9233,-12.3398 h 125.4328 125.4328 l 0.5866,0.9409 0.5864,0.941 -3.2383,6.3621 c -1.7811,3.4992 -4.4021,8.1755 -5.8244,10.3915 -1.4222,2.2161 -4.9237,8.5623 -7.7812,14.1027 -5.8061,11.2577 -11.0965,20.9662 -16.7416,30.7234 -2.0836,3.6011 -6.8365,12.4047 -10.5621,19.563 -3.7255,7.1586 -8.0805,14.9354 -9.6778,17.2819 -1.5968,2.3466 -3.2325,5.3288 -3.6344,6.6272 -0.402,1.2986 -1.2295,2.9771 -1.8384,3.7296 -0.609,0.7524 -2.7494,4.6056 -4.7564,8.5622 -3.4091,6.7208 -11.0918,20.6241 -17.4815,31.6354 -1.5228,2.624 -3.2527,5.9041 -3.8443,7.2893 -1.9017,4.4523 -5.5437,11.5394 -6.7292,13.0951 -0.6333,0.8312 -3.3246,5.5909 -5.9809,10.5771 -2.6559,4.9862 -5.3054,9.6633 -5.8871,10.3932 -0.5819,0.7301 -3.639,6.3963 -6.7936,12.5917 -6.755,13.2655 -10.9325,20.7569 -12.7415,22.8484 -0.7188,0.8311 -2.0679,3.4058 -2.9981,5.7219 l -1.6908,4.211 -3.1173,1.0774 -3.1174,1.0776 H 1139.5875 618.71826 l -1.1185,-1.3362 z m 191.47052,-279.4171 c -1.09156,-1.0824 -0.71118,-2.0569 2.09199,-5.3603 2.65125,-3.1243 9.46685,-13.7987 9.46685,-14.8268 0,-0.2822 1.60002,-2.7213 3.55558,-5.4205 1.95556,-2.699 3.55557,-5.2076 3.55557,-5.5745 0,-0.367 2.86482,-5.0123 6.36625,-10.3228 6.89417,-10.4564 7.22227,-10.98 12.04656,-19.2254 1.78289,-3.0471 4.67013,-7.3532 6.41607,-9.5696 1.74596,-2.216 3.73819,-5.1624 4.42718,-6.5475 0.68896,-1.3852 2.50253,-4.4229 4.03013,-6.7511 1.52761,-2.3282 4.82985,-7.5411 7.33834,-11.5842 6.3591,-10.25 6.00257,-9.6839 12.2011,-19.3703 3.07302,-4.8021 8.10164,-12.7445 11.17466,-17.6497 5.58188,-8.9096 11.74392,-18.4963 26.77065,-41.649 13.59211,-20.9423 15.12607,-23.2887 17.06336,-26.1004 1.03426,-1.5013 1.88048,-3.0402 1.88048,-3.4203 0,-0.3799 2.97145,-5.1591 6.60322,-10.6203 3.63175,-5.4615 6.6372,-10.2683 6.67879,-10.6826 0.0416,-0.4138 1.99648,-3.4723 4.34448,-6.7967 l 4.26893,-6.0439 630.10283,-0.2526 630.1027,-0.2526 0.5849,1.5119 0.5849,1.5117 -0.6285,1.259 c -0.3457,0.6927 -2.7255,5.1124 -5.2877,9.8215 -2.5624,4.7093 -6.2305,11.5088 -8.1512,15.1101 -1.9206,3.6008 -3.9081,7.2274 -4.4167,8.0583 -2.4813,4.0559 -9.5173,16.8401 -15.2451,27.7015 -3.5061,6.6486 -8.4492,15.7144 -10.9851,20.1467 -2.5357,4.4322 -6.5147,11.6849 -8.8424,16.1172 -6.5576,12.4868 -11.6058,21.6416 -15.2983,27.7419 -1.8579,3.0697 -3.8591,6.6959 -4.4472,8.0587 -0.5881,1.3627 -1.5278,3.1577 -2.0881,3.9887 -0.5606,0.8309 -1.4837,2.6442 -2.0512,4.0295 -0.5677,1.3849 -2.0881,4.3313 -3.3788,6.5474 -3.2296,5.5463 -9.94,17.768 -17.9752,32.7382 -11.8411,22.0614 -15.2402,27.9915 -16.7621,29.244 -0.817,0.6723 -1.4854,1.8034 -1.4854,2.5134 0,0.7102 -2.0652,5.3009 -4.5892,10.2019 l -4.5891,8.9105 -2.1378,1.7718 -2.1378,1.7717 -272.8935,-0.063 -272.8935,-0.063 -2.7369,-1.2041 -2.7371,-1.2038 -9.2893,-10.0733 c -10.4344,-11.3151 -46.3555,-49.1555 -60.6372,-63.8774 l -9.3687,-9.6574 -1.8061,1.1129 -1.8059,1.1133 -0.6344,13.9968 c -0.3489,7.6984 -0.9894,25.918 -1.4232,40.4886 l -0.789,26.4918 -2.1323,1.4823 -2.1322,1.4822 -319.6239,-0.065 -319.62374,-0.064 -0.63168,-0.6263 z"
     id="path446" />
</svg>
